HIERARCHY
ROOT Hips
{
	OFFSET -14.64140 90.27770 -84.91600
	CHANNELS 6 Xposition Yposition Zposition Zrotation Xrotation Yrotation
	JOINT Spine
	{
		OFFSET 0.00000 13.20850 -1.60436
		CHANNELS 3 Zrotation Xrotation Yrotation
		JOINT Spine1
		{
			OFFSET 0.00000 8.61716 0.00000
			CHANNELS 3 Zrotation Xrotation Yrotation
			JOINT Spine2
			{
				OFFSET 0.00000 8.61717 0.00000
				CHANNELS 3 Zrotation Xrotation Yrotation
				JOINT Spine3
				{
					OFFSET 0.00000 8.61717 0.00000
					CHANNELS 3 Zrotation Xrotation Yrotation
					JOINT Neck
					{
						OFFSET 0.00000 11.07920 1.10792
						CHANNELS 3 Zrotation Xrotation Yrotation
						JOINT Neck1
						{
							OFFSET 0.00000 7.08032 0.00000
							CHANNELS 3 Zrotation Xrotation Yrotation
							JOINT Head
							{
								OFFSET 0.00000 7.08031 0.00000
								CHANNELS 3 Zrotation Xrotation Yrotation
								End site
								{
									OFFSET 0.00000 0.00000 0.00000
								}
							}
						}
					}
					JOINT RightShoulder
					{
						OFFSET -0.01000 7.91373 5.19711
						CHANNELS 3 Zrotation Xrotation Yrotation
						JOINT RightArm
						{
							OFFSET -18.41580 0.00000 0.00000
							CHANNELS 3 Zrotation Xrotation Yrotation
							JOINT RightForeArm
							{
								OFFSET -29.11090 0.00000 0.00000
								CHANNELS 3 Zrotation Xrotation Yrotation
								JOINT RightHand
								{
									OFFSET -24.65040 0.00000 0.00000
									CHANNELS 3 Zrotation Xrotation Yrotation
									JOINT RightHandThumb1
									{
										OFFSET -5.35114 -0.85590 3.97906
										CHANNELS 3 Zrotation Xrotation Yrotation
										JOINT RightHandThumb2
										{
											OFFSET -4.52789 0.00000 0.00000
											CHANNELS 3 Zrotation Xrotation Yrotation
											JOINT RightHandThumb3
											{
												OFFSET -2.46976 0.00000 0.00000
												CHANNELS 3 Zrotation Xrotation Yrotation
												End site
												{
													OFFSET 0.00000 0.00000 0.00000
												}
											}
										}
									}
									JOINT RightHandIndex1
									{
										OFFSET -14.26970 0.00000 2.88139
										CHANNELS 3 Zrotation Xrotation Yrotation
										JOINT RightHandIndex2
										{
											OFFSET -5.48836 0.00000 0.00000
											CHANNELS 3 Zrotation Xrotation Yrotation
											JOINT RightHandIndex3
											{
												OFFSET -3.01859 0.00000 0.00000
												CHANNELS 3 Zrotation Xrotation Yrotation
												End site
												{
													OFFSET 0.00000 0.00000 0.00000
												}
											}
										}
									}
									JOINT RightHandMiddle1
									{
										OFFSET -14.26970 0.00000 -0.09147
										CHANNELS 3 Zrotation Xrotation Yrotation
										JOINT RightHandMiddle2
										{
											OFFSET -6.17441 0.00000 0.00000
											CHANNELS 3 Zrotation Xrotation Yrotation
											JOINT RightHandMiddle3
											{
												OFFSET -3.56743 0.00000 0.00000
												CHANNELS 3 Zrotation Xrotation Yrotation
												End site
												{
													OFFSET 0.00000 0.00000 0.00000
												}
											}
										}
									}
									JOINT RightHandRing1
									{
										OFFSET -12.69180 0.00000 -3.06433
										CHANNELS 3 Zrotation Xrotation Yrotation
										JOINT RightHandRing2
										{
											OFFSET -5.62556 0.00000 0.00000
											CHANNELS 3 Zrotation Xrotation Yrotation
											JOINT RightHandRing3
											{
												OFFSET -3.56744 0.00000 0.00000
												CHANNELS 3 Zrotation Xrotation Yrotation
												End site
												{
													OFFSET 0.00000 0.00000 0.00000
												}
											}
										}
									}
									JOINT RightHandPinky1
									{
										OFFSET -11.11390 0.00000 -6.03719
										CHANNELS 3 Zrotation Xrotation Yrotation
										JOINT RightHandPinky2
										{
											OFFSET -4.52789 0.00000 0.00000
											CHANNELS 3 Zrotation Xrotation Yrotation
											JOINT RightHandPinky3
											{
												OFFSET -2.46976 0.00000 0.00000
												CHANNELS 3 Zrotation Xrotation Yrotation
												End site
												{
													OFFSET 0.00000 0.00000 0.00000
												}
											}
										}
									}
								}
							}
						}
					}
					JOINT LeftShoulder
					{
						OFFSET 0.01000 7.91373 5.19711
						CHANNELS 3 Zrotation Xrotation Yrotation
						JOINT LeftArm
						{
							OFFSET 18.41580 0.00000 0.00000
							CHANNELS 3 Zrotation Xrotation Yrotation
							JOINT LeftForeArm
							{
								OFFSET 29.11090 0.00000 0.00000
								CHANNELS 3 Zrotation Xrotation Yrotation
								JOINT LeftHand
								{
									OFFSET 24.65040 0.00000 0.00000
									CHANNELS 3 Zrotation Xrotation Yrotation
									JOINT LeftHandThumb1
									{
										OFFSET 5.35114 -0.85590 3.97906
										CHANNELS 3 Zrotation Xrotation Yrotation
										JOINT LeftHandThumb2
										{
											OFFSET 4.52789 0.00000 0.00000
											CHANNELS 3 Zrotation Xrotation Yrotation
											JOINT LeftHandThumb3
											{
												OFFSET 2.46977 0.00000 0.00000
												CHANNELS 3 Zrotation Xrotation Yrotation
												End site
												{
													OFFSET 0.00000 0.00000 0.00000
												}
											}
										}
									}
									JOINT LeftHandIndex1
									{
										OFFSET 14.26970 0.00000 2.88139
										CHANNELS 3 Zrotation Xrotation Yrotation
										JOINT LeftHandIndex2
										{
											OFFSET 5.48836 0.00000 0.00000
											CHANNELS 3 Zrotation Xrotation Yrotation
											JOINT LeftHandIndex3
											{
												OFFSET 3.01859 0.00000 0.00000
												CHANNELS 3 Zrotation Xrotation Yrotation
												End site
												{
													OFFSET 0.00000 0.00000 0.00000
												}
											}
										}
									}
									JOINT LeftHandMiddle1
									{
										OFFSET 14.26970 0.00000 -0.09147
										CHANNELS 3 Zrotation Xrotation Yrotation
										JOINT LeftHandMiddle2
										{
											OFFSET 6.17440 0.00000 0.00000
											CHANNELS 3 Zrotation Xrotation Yrotation
											JOINT LeftHandMiddle3
											{
												OFFSET 3.56744 0.00000 0.00000
												CHANNELS 3 Zrotation Xrotation Yrotation
												End site
												{
													OFFSET 0.00000 0.00000 0.00000
												}
											}
										}
									}
									JOINT LeftHandRing1
									{
										OFFSET 12.69180 0.00000 -3.06433
										CHANNELS 3 Zrotation Xrotation Yrotation
										JOINT LeftHandRing2
										{
											OFFSET 5.62556 0.00000 0.00000
											CHANNELS 3 Zrotation Xrotation Yrotation
											JOINT LeftHandRing3
											{
												OFFSET 3.56744 0.00000 0.00000
												CHANNELS 3 Zrotation Xrotation Yrotation
												End site
												{
													OFFSET 0.00000 0.00000 0.00000
												}
											}
										}
									}
									JOINT LeftHandPinky1
									{
										OFFSET 11.11390 0.00000 -6.03719
										CHANNELS 3 Zrotation Xrotation Yrotation
										JOINT LeftHandPinky2
										{
											OFFSET 4.52789 0.00000 0.00000
											CHANNELS 3 Zrotation Xrotation Yrotation
											JOINT LeftHandPinky3
											{
												OFFSET 2.46976 0.00000 0.00000
												CHANNELS 3 Zrotation Xrotation Yrotation
												End site
												{
													OFFSET 0.00000 0.00000 0.00000
												}
											}
										}
									}
								}
							}
						}
					}
					JOINT pCube4
					{
						OFFSET 0.00000 10.91090 1.10792
						CHANNELS 3 Zrotation Xrotation Yrotation
						End site
						{
							OFFSET 0.00000 0.00000 0.00000
						}
					}
				}
			}
		}
	}
	JOINT RightUpLeg
	{
		OFFSET -9.98441 0.00000 0.00000
		CHANNELS 3 Zrotation Xrotation Yrotation
		JOINT RightLeg
		{
			OFFSET 0.00000 -42.11790 0.00000
			CHANNELS 3 Zrotation Xrotation Yrotation
			JOINT RightFoot
			{
				OFFSET 0.00000 -45.00020 -0.00001
				CHANNELS 3 Zrotation Xrotation Yrotation
				JOINT RightForeFoot
				{
					OFFSET 0.00000 -3.74820 0.00000
					CHANNELS 3 Zrotation Xrotation Yrotation
					JOINT RightToeBase
					{
						OFFSET 0.00000 0.06325 14.43120
						CHANNELS 3 Zrotation Xrotation Yrotation
						End site
						{
							OFFSET 0.00000 0.00000 0.00000
						}
					}
				}
			}
		}
	}
	JOINT LeftUpLeg
	{
		OFFSET 9.98441 0.00000 0.00000
		CHANNELS 3 Zrotation Xrotation Yrotation
		JOINT LeftLeg
		{
			OFFSET 0.00000 -42.11800 0.00000
			CHANNELS 3 Zrotation Xrotation Yrotation
			JOINT LeftFoot
			{
				OFFSET 0.00000 -45.00070 0.00000
				CHANNELS 3 Zrotation Xrotation Yrotation
				JOINT LeftForeFoot
				{
					OFFSET 0.00000 -3.74824 0.00000
					CHANNELS 3 Zrotation Xrotation Yrotation
					JOINT LeftToeBase
					{
						OFFSET 0.00000 0.06325 14.43110
						CHANNELS 3 Zrotation Xrotation Yrotation
						End site
						{
							OFFSET 0.00000 0.00000 0.00000
						}
					}
				}
			}
		}
	}
}
MOTION
Frames: 4
Frame Time: 0.050000
-0.006719091739733148 0.03266315609608624 0.003413513485702974 -0.02575369300552939 0.009286771478762728 0.005941472321037343 -3.6727052881078306 6.1190165210727505 -0.6967794073953769 -1.040120952921184 4.132645183778563 0.4984100734615736 -1.0105013141870878 0.7601376226684152 -0.03454662818417932 1.2363033639217331 1.0458677955707887 -0.7842085154627634 -0.0023462977072243817 9.640985344047033 -1.1811121894229857 -0.4234677445753633 -1.6220134765097265 -6.020693210149508 0.053947410608981575 -16.1912732825139 -0.43786784828672515 4.696852697869935 -0.7569796583080467 -14.474904490556394 62.62175953002404 17.430499236318198 12.977030710102492 17.98041827855392 6.1146178168866046 94.34269883193815 13.848405424515738 -0.30294503761530517 -7.8799351759211085 4.5767359158304695 -0.11949683904837755 -1.6023245285360752 0.03367125844900424 0.025014281478271585 -56.2694846467056 0.035247298260524515 -0.027248672779415707 -56.218917806205745 -38.749768996603215 0.005398387556910457 0.009575875379004247 -0.03593445648070083 -0.023816883776304133 -0.039433238622664 0.008984177208872767 -0.00767401245660985 0.026392078912421853 -36.70190192719347 -0.028342297770621375 0.0238465301655833 -0.010902618041820545 -0.019933591856100646 0.018211859808171096 -0.032875853928927244 0.007971438843943933 0.04083582325024475 -19.771725284384782 -0.008011208359305185 -0.04358595103103478 0.04371936493920297 0.017722113561501714 0.0008223682312245838 0.0497255879685697 -0.01694099685782045 -0.0435614771897906 24.099171762459772 0.03988966641727888 -0.008442349081029017 28.834319183185325 -0.02406099493470035 0.020503026043453106 28.8978406487844 -0.03979809875967995 -0.029399167536869553 -4.944849616102367 -0.48804458553152397 12.897376904846013 -62.512201844723755 28.19532150298012 -7.356283941902127 -2.2827085880439855 3.8091299968964627 -63.86373277231735 -13.619230374132146 3.7987544564966975 0.3593245213921085 -0.5012163012448408 0.09019494140237522 -8.09897181033651 0.009020576295198951 0.00037950656740787415 44.5914415177149 0.02403262104522609 0.003635979301722834 44.57108597138607 12.448920571541427 0.04734538921028757 -0.019687625113665543 -0.04952686862954287 -0.02797238788516635 -0.02366919712261958 -0.01828476514413443 -0.01833987748169984 0.026800326924873167 11.06765302621862 -0.028195125998822266 0.029418980268418875 0.04444829323688567 0.0065768164937187994 0.011370121503469076 -0.0033869767064524828 0.018345529670860547 0.04000281247135885 4.722738129416373 -0.009196785639705022 -0.01533321184782792 0.02175345799585662 -0.0021933388228435025 -0.032570528958032516 0.045582570396885375 -0.04222303197847858 -0.030147846205390287 -5.605027098157563 -0.015497600715541087 0.02567351771425588 -6.744294859943719 -0.013261963371802712 -0.005065634330375619 -6.7137660596206565 0.00937984594760228 0.02741341482516414 -0.0066889598812039965 -0.006737717607851872 -0.004446146753264938 8.050080026705627 3.461176804417156 -19.207275586369096 0.02044519957866223 10.371577035331947 0.008846503097070958 -5.590433641625261 -15.664384264644536 3.144524543541764 0.009038756010065905 -0.014859414672458299 -0.007252295415169911 0.005209143336877908 4.6759981795281975 -0.025406814436688588 12.427581710891562 -8.254551961973933 6.834158454661192 -0.023251918657655718 46.38445282893698 -0.022564683454173777 -4.289970752138702 -14.797933494711636 -3.8749808890087074 -0.028129240207928525 -0.024208215280695587 -0.014453234842120207 0.04981283603833257 -10.716445257573856 -0.020766272268946576 
0.023960095767129368 -0.045728486910632714 0.005038850218057289 0.006843563662987624 0.0018063215490869767 -0.04976001793966564 -3.5691110424807344 6.317645221958134 -0.7686542185882562 -1.0136149278414248 4.07013400206871 0.42099189266008025 -0.9931473227009497 0.8242530501163897 -0.1148771333190814 1.1984567469094123 1.064845666930317 -0.7815040709032811 -0.0752363119782401 9.513362360620766 -1.094112765462068 -0.43967314741949315 -1.7289689565272373 -5.956761518756738 -0.008191328900731897 -16.27765590819205 -0.4651163931948815 4.784493231968265 -0.8033995161800974 -14.371436585478595 62.70476030282576 16.993103724899793 12.559954510814489 19.60638970360191 6.7137443122384335 93.8263549533905 14.299912795611222 -0.30251035446911606 -8.070761007281087 4.569917221781283 -0.08665328052693597 -1.6370423455050684 -0.014164685033690502 0.014477592622589826 -56.26340574250364 -0.03660819324598148 0.0038918563178058116 -56.21549812187788 -38.72024827642672 0.010503867085565388 -0.012447955605281093 0.021460092323181107 -0.02319505640777366 -0.01930002254450093 -0.015216560405827096 -0.018648006732912743 -0.014299497604078263 -36.66224669813723 0.03705799756118784 0.04420876999928192 0.010745501244363027 0.023136009927892182 0.006093179175176886 0.04594600718435372 0.045006426321493063 -0.018910017248058675 -19.79784652576391 0.03656128972682696 -0.013402087466467899 -0.040491687069076174 -0.02954648645207594 0.011988553834551283 0.03712857032261291 -0.025729938150354365 0.029668430683946704 24.068852292600933 0.015439454660769325 0.029353977190137822 28.884576693368572 0.04744827401337582 0.04320818255071167 28.876827408902287 0.026080366792147154 0.036308970419596985 -4.945745407704312 -0.4877826171773061 12.741405324744745 -62.19177431532473 28.28738691991656 -7.717984119667206 -3.8180524907691993 4.423238479411155 -66.35466925570117 -14.012701345184032 3.4141884803994316 0.5228388936503722 -0.4543244602894088 0.08952675255187481 -8.114750252509035 -0.0321395263759782 -0.009746962440387572 44.55993474582798 0.009244709938451483 0.04306339182391502 44.54108388415457 12.470226567204577 0.03867926135033523 0.0020932477649428516 -0.03457019237387783 0.003700376545300262 -0.01664862621062091 0.0062052019052915705 0.0343090392678399 0.008255285295622418 11.142049321299739 0.03124631208743532 -0.012763634405283478 -0.0030872461656773023 -0.011721126595837916 -0.012282491351980757 -0.042034943666113635 0.04046994412313697 0.04820837175396088 4.792884824123151 0.04278519127300494 0.00620195658425954 -0.030931675648587502 0.008694259339518484 0.03142207645393678 0.035396013418722665 0.0129709279172645 0.023174428172141572 -5.557687010633254 -0.025390212975894715 0.022895508470213682 -6.7622779076445045 0.04262547518856397 -0.006585933137907287 -6.708945525294824 0.028143727556915913 0.029828556287325822 0.007831552147561168 0.029076942241993 0.0156758411852801 8.00890674992765 3.4934221757379054 -19.24433330691825 0.023426833535512726 10.390715915058914 -0.025355326143606808 -5.63381372664318 -15.655872622388681 3.2413066639513612 0.014088614117007127 -0.04020170245507988 0.035512517245781375 -0.0328802736663894 4.662224893703249 0.014201878086890258 12.437039899009623 -8.1894110040692 6.88838041136648 0.03409037347045774 46.369599396109734 0.00548780924116537 -4.328111901469105 -14.790710102043752 -3.88022843405298 -0.03060760191640628 -0.01596994592346093 0.03976916868837448 0.047044342239960735 -10.741963079641398 -0.03230049948721538 
-0.03627767778739024 0.006839230674958719 -0.0061258243791495895 0.04844865367138594 -0.0031042498294441326 0.03168789534545786 -3.405367001536896 6.273029856048108 -0.7004917772732622 -1.0671128360476823 4.079223904617622 0.409820465407553 -1.0026177177651112 0.7592281125777465 -0.16702329171188596 1.2234963333244522 0.9966735499599224 -0.849488985205714 -0.06731850122590151 9.46447382894024 -1.0936158954134232 -0.4278517004108259 -1.779292660618599 -5.787435265581206 0.005881344250377637 -16.433605886018356 -0.3897608728172077 4.674715914696679 -0.7913083019513982 -14.173017054012472 63.07350576833492 16.926442464757255 12.042524733818464 21.643347167982522 7.2078619849559535 93.84149297308745 14.614443723233588 -0.23535760366792108 -8.248853095418779 4.576163228169938 -0.14061009656769483 -1.581922683239372 0.026821427975722966 0.021886431971258682 -56.26153372328215 0.0006070971643533259 0.019442912873822358 -56.19944080536427 -38.721252010734275 -0.018815446542737528 -0.02454687573690238 0.006512774971651541 0.04808420246422651 0.03548738384762092 0.012921623820062761 -0.049004867775256644 -0.04780650854056809 -36.67336939152897 0.027694465942845525 -0.03584134352908645 -0.005483861034069146 -0.036374891309326314 -0.04039858072802148 -0.014649393029796143 -0.03939225216743481 -0.03561545477024526 -19.755901210595365 0.01195942487879944 0.004047085094528941 0.01517488665079886 -0.023718335520450586 0.03401754195749393 -0.027486611445857113 0.0021864313364235045 -0.01677311914791308 24.014343660270082 0.01330539489447601 -0.004525451261500731 28.896627475681054 -0.039539810481937256 -0.040032109945535695 28.865562103450632 0.01209597286906496 0.003974836017132223 -4.598124195959801 -0.451348202531407 12.615045831094145 -62.1347279397576 28.49406927411128 -8.192981068147024 -5.848967338355402 5.055059742329364 -69.44243192118411 -14.176806065420857 2.7811031814501703 0.7434051240240009 -0.5052538288742946 0.07700616037341551 -8.124314335641103 -0.027338408047511427 0.038146201485805976 44.53882842611866 -0.00866709237949891 0.036965419566875636 44.56987485111833 12.490019257086358 -0.030955613994003553 0.0019976434313002953 0.02768176612333787 0.04242200080356132 -0.012666080490066458 -0.03920827853278696 -0.013268031551477077 0.0027164383671474724 11.12571139927707 -0.032698701924503706 -0.042028871150010305 -0.013145678103341617 -0.0028842569845990754 -0.04509563392239317 0.03507377257761848 0.04219575072616059 -0.032010426876988074 4.768456953471598 -0.02706926784235576 -0.016288901157653385 0.002130256129972246 0.01893954062954005 0.0376441167814048 -0.0008101968980343953 -0.010780885836908784 0.018969338822032337 -5.612235710193828 0.016152715396829425 -0.035048957160154375 -6.757857995233782 -0.04514289236231907 -0.04140186741037389 -6.723236919329447 -0.010335374563679655 -0.043243515311089616 0.00910184202812825 0.03243499687861502 0.026280330347055597 8.036960854135389 3.4948196400795792 -19.207495712245258 0.045652470814679665 10.352239125936626 0.026087382050604284 -5.595004903075202 -15.664019431281393 3.1915899171773474 -0.02560530472821854 0.04902749766817662 0.026927191856262835 0.008498943597222862 4.6824755310474115 -0.02583261303305146 12.476820577396264 -8.246445671616716 6.895928363562089 -0.009033739216923643 46.405241143795486 -0.0408128294275656 -4.3612701206738835 -14.760372115308455 -3.8805332205475347 0.02635795232400527 -0.004468406748925428 -0.0024974445764626386 0.03605532178014891 -10.788212002563881 0.025874401080921296 
0.040346512805082495 -0.03359968731338405 -0.04912493728505656 0.027238375174945557 -0.02043448675259714 -0.019484178569547247 -3.3228928331808576 6.1863137261805345 -0.7431549073678968 -1.0374606976629548 3.9895211183406145 0.41078611639412554 -0.9711613977758236 0.7251943614494126 -0.2664435173741128 1.0809664069532334 0.9369897311707099 -0.7892079448413276 -0.09138941248015885 9.465129153213637 -0.9974313700885462 -0.44406924459146696 -1.7388562621629464 -5.486153141090467 0.008991634938945576 -16.406443444433588 -0.36702702882030647 4.568849430913812 -0.6823849254395623 -14.129540852157598 63.57872252035833 16.609704688525042 11.536000307582327 24.0795979193424 7.742676419868859 94.08079652893855 14.949095537264087 -0.2640159317950554 -8.380353049351422 4.530674416980856 -0.11452964920872652 -1.623429619251756 0.03562159236857551 0.01735247430917271 -56.23513023897593 0.02690529392534497 -0.024133243097791874 -56.18836328015533 -38.79305076485087 0.010345716064827492 0.00807176955246818 -0.016492704271544235 -0.03021414772841466 0.038425426549217954 0.03594214004139325 0.049532227063504304 0.02950729460400031 -36.725605613318436 0.009430559253247409 0.028212014032295687 -0.030038288487065867 0.004954812617274896 0.0003473398545455829 0.03131413394840808 -0.021440473182164833 0.012527633296298284 -19.793437484755728 0.02274666858300604 0.01159040986250613 -0.011651545491103976 0.04457434590826955 0.02838492326290697 0.026256217545662354 -0.022560704433718774 -0.021500309492902565 24.08179432676099 0.04916867561421177 0.003044667054574587 28.858531271843813 -0.01364202131714679 0.03230230980044994 28.841566907897537 0.03511447604335055 -0.014553360696301174 -4.149800381049796 -0.3877464181357821 12.489672328816129 -62.251039304294125 28.722361250009886 -8.889039724204613 -8.04178687004259 5.586592070916781 -72.98576541140194 -14.191659135101453 2.3024565530300847 0.9086307921410521 -0.488965648648368 0.047895314338983946 -8.107684363523068 -0.012461280705647497 -0.007954795250658092 44.56877356353837 -0.0472928849426788 -0.0181377368220631 44.600869278499054 12.504507587872038 0.048148830564607906 0.03181172458774254 -0.047293127632491556 0.01278363992853658 0.0022734882659624983 0.0001089860276689725 -0.010648774173573131 0.032555142345541355 11.113159872426074 0.0072073999816676245 -0.029846260649210365 -0.0030649167999893426 -0.02501695800343914 0.0017931233484247775 -0.025408886995563415 0.04387129870843882 -0.03612684546626082 4.802241748996123 -0.013636140900409181 0.04315245717996666 0.04307375554819673 0.03361830735130063 -0.032565561311298945 -0.012635135560859476 0.01700447483202872 -0.009697430946164513 -5.597950671920209 -0.046478248932452795 -0.030381798666158474 -6.688181738305548 0.02685845953209586 0.020102387377723723 -6.688352676430499 -0.0484861638615244 -0.03415271098597478 0.01819968742981964 -0.0205589125504466 -0.02877896791899244 8.010522877154848 3.4528668809932856 -19.2308888358327 0.028965057763208537 10.412614539121705 0.0035819489617759277 -5.620324887856509 -15.627430601139494 3.194213427258843 0.01906365634767806 0.019263297674600926 0.04668391095723708 0.047741800915109295 4.710124096717251 -0.007016762771683002 12.418878930188257 -8.189521546359645 6.857741926745293 -0.03922548377738502 46.33031120019301 0.014449389777084634 -4.334566586227175 -14.750619569842616 -3.8542916824176605 0.014730348577318583 0.021200420448462678 0.010284673891412004 0.02057783732402823 -10.77366504825262 0.04771465219352378 
